<svg xmlns="http://www.w3.org/2000/svg" xmlns:xlink="http://www.w3.org/1999/xlink" width="2000" zoomAndPan="magnify" viewBox="0 0 1500 1499.999933" height="2000" preserveAspectRatio="xMidYMid meet" version="1.0"><defs><g/></defs><rect x="-150" width="1800" fill="#ffffff" y="-149.999993" height="1799.99992" fill-opacity="1"/><rect x="-150" width="1800" fill="#000000" y="-149.999993" height="1799.99992" fill-opacity="1"/><g fill="#e6d402" fill-opacity="1"><g transform="translate(271.626572, 833.359252)"><g><path d="M 95.515625 -16.21875 C 93.859375 -16.21875 92.09375 -16.703125 90.21875 -17.671875 C 88.34375 -18.648438 86.351562 -19.742188 84.25 -20.953125 L 11.03125 -63.96875 C 9.226562 -65.175781 7.875 -66.71875 6.96875 -68.59375 C 6.070312 -70.46875 5.625 -72.382812 5.625 -74.34375 C 5.625 -76.4375 6.070312 -78.421875 6.96875 -80.296875 C 7.875 -82.179688 9.226562 -83.648438 11.03125 -84.703125 L 84.25 -126.828125 C 86.195312 -128.023438 88.035156 -128.960938 89.765625 -129.640625 C 91.492188 -130.316406 93.109375 -130.65625 94.609375 -130.65625 C 97.609375 -130.65625 100.421875 -129.191406 103.046875 -126.265625 C 105.679688 -123.335938 107 -120.296875 107 -117.140625 C 107 -115.640625 106.582031 -114.175781 105.75 -112.75 C 104.925781 -111.320312 103.691406 -110.082031 102.046875 -109.03125 L 23.875 -63.75 L 22.296875 -86.28125 L 101.8125 -38.75 C 103.613281 -37.695312 104.890625 -36.378906 105.640625 -34.796875 C 106.398438 -33.222656 106.78125 -31.609375 106.78125 -29.953125 C 106.78125 -26.347656 105.539062 -23.15625 103.0625 -20.375 C 100.582031 -17.601562 98.066406 -16.21875 95.515625 -16.21875 Z M 95.515625 -16.21875 "/></g></g></g><g fill="#ffffff" fill-opacity="1"><g transform="translate(389.903905, 833.359252)"><g><path d="M 33.109375 0 C 28.910156 0 25.15625 -1.3125 21.84375 -3.9375 C 18.539062 -6.570312 16.890625 -9.835938 16.890625 -13.734375 L 16.890625 -143.9375 C 16.890625 -147.84375 18.203125 -151.109375 20.828125 -153.734375 C 23.460938 -156.367188 26.734375 -157.6875 30.640625 -157.6875 L 95.515625 -157.6875 C 103.316406 -157.6875 110.632812 -155.617188 117.46875 -151.484375 C 124.300781 -147.359375 129.820312 -141.65625 134.03125 -134.375 C 138.238281 -127.09375 140.34375 -118.71875 140.34375 -109.25 C 140.34375 -103.539062 139.175781 -97.984375 136.84375 -92.578125 C 134.519531 -87.171875 131.367188 -82.289062 127.390625 -77.9375 C 123.410156 -73.582031 118.941406 -70.207031 113.984375 -67.8125 L 114.203125 -72.984375 C 118.410156 -70.734375 121.90625 -68.066406 124.6875 -64.984375 C 127.46875 -61.910156 129.644531 -58.609375 131.21875 -55.078125 C 132.789062 -51.546875 133.726562 -47.753906 134.03125 -43.703125 C 134.632812 -39.941406 135.046875 -36.632812 135.265625 -33.78125 C 135.492188 -30.9375 135.945312 -28.535156 136.625 -26.578125 C 137.300781 -24.628906 138.613281 -23.128906 140.5625 -22.078125 C 143.863281 -20.117188 145.925781 -17.300781 146.75 -13.625 C 147.582031 -9.945312 146.722656 -6.679688 144.171875 -3.828125 C 142.515625 -1.878906 140.410156 -0.640625 137.859375 -0.109375 C 135.304688 0.410156 132.753906 0.410156 130.203125 -0.109375 C 127.648438 -0.640625 125.546875 -1.351562 123.890625 -2.25 C 121.335938 -3.75 118.785156 -5.960938 116.234375 -8.890625 C 113.679688 -11.828125 111.613281 -15.769531 110.03125 -20.71875 C 108.457031 -25.675781 107.671875 -32.0625 107.671875 -39.875 C 107.671875 -42.425781 107.21875 -44.789062 106.3125 -46.96875 C 105.414062 -49.144531 104.140625 -51.019531 102.484375 -52.59375 C 100.835938 -54.175781 98.738281 -55.378906 96.1875 -56.203125 C 93.632812 -57.023438 90.628906 -57.4375 87.171875 -57.4375 L 41.671875 -57.4375 L 45.046875 -62.625 L 45.046875 -13.734375 C 45.046875 -9.835938 43.992188 -6.570312 41.890625 -3.9375 C 39.796875 -1.3125 36.867188 0 33.109375 0 Z M 41.90625 -80.640625 L 94.390625 -80.640625 C 97.085938 -80.640625 99.710938 -81.878906 102.265625 -84.359375 C 104.816406 -86.835938 106.921875 -90.21875 108.578125 -94.5 C 110.234375 -98.78125 111.0625 -103.472656 111.0625 -108.578125 C 111.0625 -115.179688 109.296875 -120.695312 105.765625 -125.125 C 102.234375 -129.5625 98.441406 -131.78125 94.390625 -131.78125 L 42.34375 -131.78125 L 45.046875 -138.984375 L 45.046875 -75.234375 Z M 41.90625 -80.640625 "/></g></g></g><g fill="#ffffff" fill-opacity="1"><g transform="translate(544.664119, 833.359252)"><g><path d="M 113.3125 -122.765625 C 117.21875 -122.765625 120.445312 -121.488281 123 -118.9375 C 125.550781 -116.382812 126.828125 -113.082031 126.828125 -109.03125 L 126.828125 -13.734375 C 126.828125 -9.835938 125.550781 -6.570312 123 -3.9375 C 120.445312 -1.3125 117.21875 0 113.3125 0 C 109.40625 0 106.175781 -1.3125 103.625 -3.9375 C 101.070312 -6.570312 99.796875 -9.835938 99.796875 -13.734375 L 99.796875 -24.78125 L 104.75 -22.75 C 104.75 -20.800781 103.695312 -18.4375 101.59375 -15.65625 C 99.488281 -12.875 96.632812 -10.128906 93.03125 -7.421875 C 89.425781 -4.722656 85.179688 -2.4375 80.296875 -0.5625 C 75.421875 1.3125 70.128906 2.25 64.421875 2.25 C 54.054688 2.25 44.671875 -0.410156 36.265625 -5.734375 C 27.859375 -11.066406 21.210938 -18.425781 16.328125 -27.8125 C 11.453125 -37.207031 9.015625 -47.984375 9.015625 -60.140625 C 9.015625 -72.460938 11.453125 -83.316406 16.328125 -92.703125 C 21.210938 -102.085938 27.785156 -109.441406 36.046875 -114.765625 C 44.304688 -120.097656 53.46875 -122.765625 63.53125 -122.765625 C 69.988281 -122.765625 75.921875 -121.785156 81.328125 -119.828125 C 86.734375 -117.878906 91.425781 -115.40625 95.40625 -112.40625 C 99.382812 -109.40625 102.460938 -106.363281 104.640625 -103.28125 C 106.816406 -100.207031 107.90625 -97.617188 107.90625 -95.515625 L 99.796875 -92.578125 L 99.796875 -109.03125 C 99.796875 -112.9375 101.070312 -116.203125 103.625 -118.828125 C 106.175781 -121.453125 109.40625 -122.765625 113.3125 -122.765625 Z M 67.8125 -22.53125 C 74.414062 -22.53125 80.191406 -24.179688 85.140625 -27.484375 C 90.097656 -30.785156 93.96875 -35.289062 96.75 -41 C 99.53125 -46.707031 100.921875 -53.085938 100.921875 -60.140625 C 100.921875 -67.347656 99.53125 -73.804688 96.75 -79.515625 C 93.96875 -85.222656 90.097656 -89.726562 85.140625 -93.03125 C 80.191406 -96.332031 74.414062 -97.984375 67.8125 -97.984375 C 61.351562 -97.984375 55.644531 -96.332031 50.6875 -93.03125 C 45.726562 -89.726562 41.859375 -85.222656 39.078125 -79.515625 C 36.304688 -73.804688 34.921875 -67.347656 34.921875 -60.140625 C 34.921875 -53.085938 36.304688 -46.707031 39.078125 -41 C 41.859375 -35.289062 45.726562 -30.785156 50.6875 -27.484375 C 55.644531 -24.179688 61.351562 -22.53125 67.8125 -22.53125 Z M 67.8125 -22.53125 "/></g></g></g><g fill="#ffffff" fill-opacity="1"><g transform="translate(686.133397, 833.359252)"><g><path d="M 79.0625 -122.765625 C 90.175781 -122.765625 98.625 -120.4375 104.40625 -115.78125 C 110.1875 -111.125 114.164062 -104.925781 116.34375 -97.1875 C 118.519531 -89.457031 119.609375 -80.863281 119.609375 -71.40625 L 119.609375 -13.734375 C 119.609375 -9.835938 118.332031 -6.570312 115.78125 -3.9375 C 113.226562 -1.3125 110 0 106.09375 0 C 102.195312 0 98.96875 -1.3125 96.40625 -3.9375 C 93.851562 -6.570312 92.578125 -9.835938 92.578125 -13.734375 L 92.578125 -71.40625 C 92.578125 -76.363281 91.9375 -80.832031 90.65625 -84.8125 C 89.382812 -88.789062 87.097656 -91.976562 83.796875 -94.375 C 80.492188 -96.78125 75.765625 -97.984375 69.609375 -97.984375 C 63.597656 -97.984375 58.523438 -96.78125 54.390625 -94.375 C 50.265625 -91.976562 47.113281 -88.789062 44.9375 -84.8125 C 42.757812 -80.832031 41.671875 -76.363281 41.671875 -71.40625 L 41.671875 -13.734375 C 41.671875 -9.835938 40.394531 -6.570312 37.84375 -3.9375 C 35.289062 -1.3125 32.0625 0 28.15625 0 C 24.25 0 21.019531 -1.3125 18.46875 -3.9375 C 15.914062 -6.570312 14.640625 -9.835938 14.640625 -13.734375 L 14.640625 -106.78125 C 14.640625 -110.6875 15.914062 -113.953125 18.46875 -116.578125 C 21.019531 -119.203125 24.25 -120.515625 28.15625 -120.515625 C 32.0625 -120.515625 35.289062 -119.203125 37.84375 -116.578125 C 40.394531 -113.953125 41.671875 -110.6875 41.671875 -106.78125 L 41.671875 -97.09375 L 38.296875 -97.765625 C 39.648438 -100.316406 41.601562 -103.054688 44.15625 -105.984375 C 46.707031 -108.910156 49.707031 -111.648438 53.15625 -114.203125 C 56.613281 -116.765625 60.519531 -118.832031 64.875 -120.40625 C 69.226562 -121.976562 73.957031 -122.765625 79.0625 -122.765625 Z M 79.0625 -122.765625 "/></g></g></g><g fill="#ffffff" fill-opacity="1"><g transform="translate(820.394073, 833.359252)"><g><path d="M 7.65625 -18.703125 C 6.15625 -20.796875 5.476562 -23.492188 5.625 -26.796875 C 5.78125 -30.109375 7.734375 -32.960938 11.484375 -35.359375 C 13.890625 -36.867188 16.441406 -37.507812 19.140625 -37.28125 C 21.847656 -37.050781 24.476562 -35.660156 27.03125 -33.109375 C 31.382812 -28.753906 35.960938 -25.375 40.765625 -22.96875 C 45.578125 -20.570312 51.585938 -19.375 58.796875 -19.375 C 61.046875 -19.519531 63.519531 -19.851562 66.21875 -20.375 C 68.925781 -20.90625 71.289062 -22.109375 73.3125 -23.984375 C 75.34375 -25.867188 76.359375 -28.757812 76.359375 -32.65625 C 76.359375 -35.96875 75.234375 -38.597656 72.984375 -40.546875 C 70.734375 -42.492188 67.765625 -44.144531 64.078125 -45.5 C 60.398438 -46.851562 56.3125 -48.128906 51.8125 -49.328125 C 47.15625 -50.679688 42.382812 -52.179688 37.5 -53.828125 C 32.625 -55.484375 28.15625 -57.625 24.09375 -60.25 C 20.039062 -62.882812 16.738281 -66.378906 14.1875 -70.734375 C 11.632812 -75.085938 10.359375 -80.566406 10.359375 -87.171875 C 10.359375 -94.679688 12.460938 -101.0625 16.671875 -106.3125 C 20.878906 -111.570312 26.320312 -115.628906 33 -118.484375 C 39.6875 -121.335938 46.707031 -122.765625 54.0625 -122.765625 C 58.71875 -122.765625 63.597656 -122.203125 68.703125 -121.078125 C 73.804688 -119.953125 78.6875 -118.148438 83.34375 -115.671875 C 88 -113.191406 91.90625 -109.925781 95.0625 -105.875 C 96.71875 -103.625 97.691406 -100.921875 97.984375 -97.765625 C 98.285156 -94.609375 96.859375 -91.753906 93.703125 -89.203125 C 91.453125 -87.398438 88.828125 -86.609375 85.828125 -86.828125 C 82.828125 -87.054688 80.347656 -88.070312 78.390625 -89.875 C 75.835938 -93.1875 72.421875 -95.816406 68.140625 -97.765625 C 63.859375 -99.710938 58.941406 -100.6875 53.390625 -100.6875 C 51.140625 -100.6875 48.695312 -100.421875 46.0625 -99.890625 C 43.4375 -99.367188 41.144531 -98.242188 39.1875 -96.515625 C 37.238281 -94.796875 36.265625 -92.054688 36.265625 -88.296875 C 36.265625 -84.847656 37.390625 -82.109375 39.640625 -80.078125 C 41.898438 -78.054688 44.941406 -76.40625 48.765625 -75.125 C 52.597656 -73.851562 56.691406 -72.613281 61.046875 -71.40625 C 65.554688 -70.207031 70.132812 -68.78125 74.78125 -67.125 C 79.4375 -65.476562 83.71875 -63.300781 87.625 -60.59375 C 91.53125 -57.894531 94.679688 -54.40625 97.078125 -50.125 C 99.484375 -45.84375 100.6875 -40.398438 100.6875 -33.796875 C 100.6875 -26.128906 98.429688 -19.59375 93.921875 -14.1875 C 89.421875 -8.78125 83.789062 -4.6875 77.03125 -1.90625 C 70.28125 0.863281 63.375 2.25 56.3125 2.25 C 47.457031 2.25 38.597656 0.710938 29.734375 -2.359375 C 20.867188 -5.441406 13.507812 -10.890625 7.65625 -18.703125 Z M 7.65625 -18.703125 "/></g></g></g><g fill="#ffffff" fill-opacity="1"><g transform="translate(928.974004, 833.359252)"><g><path d="M 40.09375 -13.734375 C 40.09375 -9.835938 38.816406 -6.570312 36.265625 -3.9375 C 33.710938 -1.3125 30.484375 0 26.578125 0 C 22.671875 0 19.441406 -1.3125 16.890625 -3.9375 C 14.335938 -6.570312 13.0625 -9.835938 13.0625 -13.734375 L 13.0625 -106.78125 C 13.0625 -110.6875 14.335938 -113.953125 16.890625 -116.578125 C 19.441406 -119.203125 22.671875 -120.515625 26.578125 -120.515625 C 30.484375 -120.515625 33.710938 -119.203125 36.265625 -116.578125 C 38.816406 -113.953125 40.09375 -110.6875 40.09375 -106.78125 Z M 26.359375 -135.15625 C 21.253906 -135.15625 17.648438 -135.976562 15.546875 -137.625 C 13.441406 -139.28125 12.390625 -142.210938 12.390625 -146.421875 L 12.390625 -150.703125 C 12.390625 -155.054688 13.550781 -158.019531 15.875 -159.59375 C 18.207031 -161.175781 21.773438 -161.96875 26.578125 -161.96875 C 31.835938 -161.96875 35.515625 -161.140625 37.609375 -159.484375 C 39.710938 -157.835938 40.765625 -154.910156 40.765625 -150.703125 L 40.765625 -146.421875 C 40.765625 -142.066406 39.640625 -139.097656 37.390625 -137.515625 C 35.140625 -135.941406 31.460938 -135.15625 26.359375 -135.15625 Z M 26.359375 -135.15625 "/></g></g></g><g fill="#ffffff" fill-opacity="1"><g transform="translate(982.13762, 833.359252)"><g><path d="M 18.921875 30.1875 C 16.367188 30.1875 13.738281 29.132812 11.03125 27.03125 C 8.332031 24.925781 6.984375 22.222656 6.984375 18.921875 C 6.984375 17.117188 7.429688 15.316406 8.328125 13.515625 L 99.796875 -173.6875 C 100.847656 -175.78125 102.273438 -177.425781 104.078125 -178.625 C 105.878906 -179.832031 107.753906 -180.4375 109.703125 -180.4375 C 112.253906 -180.4375 114.84375 -179.421875 117.46875 -177.390625 C 120.101562 -175.367188 121.421875 -172.628906 121.421875 -169.171875 C 121.421875 -167.367188 120.96875 -165.566406 120.0625 -163.765625 L 28.828125 23.421875 C 27.773438 25.523438 26.382812 27.175781 24.65625 28.375 C 22.9375 29.582031 21.023438 30.1875 18.921875 30.1875 Z M 18.921875 30.1875 "/></g></g></g><g fill="#e6d402" fill-opacity="1"><g transform="translate(1110.091347, 833.359252)"><g><path d="M 23.65625 -18.921875 C 20.644531 -18.921875 17.828125 -20.382812 15.203125 -23.3125 C 12.578125 -26.238281 11.265625 -29.28125 11.265625 -32.4375 C 11.265625 -34.09375 11.675781 -35.59375 12.5 -36.9375 C 13.320312 -38.289062 14.5625 -39.492188 16.21875 -40.546875 L 94.390625 -85.828125 L 95.96875 -63.296875 L 16.4375 -110.828125 C 14.632812 -111.878906 13.359375 -113.191406 12.609375 -114.765625 C 11.859375 -116.347656 11.484375 -117.960938 11.484375 -119.609375 C 11.484375 -123.210938 12.757812 -126.40625 15.3125 -129.1875 C 17.863281 -131.96875 20.34375 -133.359375 22.75 -133.359375 C 24.40625 -133.359375 26.171875 -132.867188 28.046875 -131.890625 C 29.921875 -130.910156 31.910156 -129.820312 34.015625 -128.625 L 107.21875 -85.59375 C 109.019531 -84.550781 110.375 -83.085938 111.28125 -81.203125 C 112.1875 -79.328125 112.640625 -77.335938 112.640625 -75.234375 C 112.640625 -73.128906 112.1875 -71.140625 111.28125 -69.265625 C 110.375 -67.390625 109.019531 -65.925781 107.21875 -64.875 L 34.015625 -22.75 C 32.066406 -21.695312 30.265625 -20.796875 28.609375 -20.046875 C 26.953125 -19.296875 25.300781 -18.921875 23.65625 -18.921875 Z M 23.65625 -18.921875 "/></g></g></g></svg>